<svg xmlns="http://www.w3.org/2000/svg" version="1.1" xmlns:xlink="http://www.w3.org/1999/xlink" xmlns:svgjs="http://svgjs.dev/svgjs" width="500" height="500"><svg width="500" height="500" viewBox="0 0 500 500" fill="none" xmlns="http://www.w3.org/2000/svg">
<rect width="500" height="500" rx="100" fill="white"></rect>
<path fill-rule="evenodd" clip-rule="evenodd" d="M361.774 410.599C357.076 409.761 352.967 408.774 352.643 408.404C352.319 408.037 354.307 407.128 357.061 406.386C362.054 405.04 362.046 405.036 354.41 404.374C350.198 404.009 343.968 402.949 340.566 402.02C336.287 400.851 338.465 400.638 347.635 401.33C368.594 402.91 390.116 404.307 392.883 404.271C394.428 404.249 395.279 405.079 395.057 406.386C394.818 407.798 399.972 408.536 410.079 408.536C421.001 408.536 425.35 407.858 425.07 406.201C424.821 404.731 425.19 404.052 426.066 404.37C426.831 404.649 427.855 404.303 428.341 403.6C428.827 402.9 433.201 401.292 438.061 400.028C442.921 398.764 447.892 396.877 449.107 395.834C450.322 394.794 451.316 394.742 451.316 395.72C451.316 398.162 449.756 399.583 440.712 405.384C439.578 406.111 437.457 407.706 435.999 408.927C432.858 411.558 374.53 412.871 361.774 410.599ZM182.395 408.336C179.626 407.138 179.706 407.042 183.72 406.724C187.949 406.39 189.226 407.3 186.666 408.821C185.936 409.256 184.015 409.036 182.395 408.336ZM175.915 407.278C175.267 406.911 172.417 405.988 169.582 405.23C166.747 404.471 164.427 403.138 164.427 402.265C164.427 401.395 165.289 401.066 166.342 401.537C167.81 402.192 168.05 401.863 167.373 400.122C166.701 398.398 167.125 397.906 169.14 398.076C171.558 398.278 171.636 398.441 170.024 399.938L168.257 401.578L170.417 401.833C171.604 401.973 172.665 401.225 172.773 400.17C172.884 399.08 175.128 398.947 177.977 399.862C183.377 401.595 183.284 402.422 177.682 402.468C175.738 402.485 174.81 402.97 175.62 403.549C177.012 404.542 178.896 408.892 177.653 408.243C177.345 408.082 176.563 407.648 175.915 407.278ZM379.029 406.947C377.018 406.528 373.571 406.526 371.371 406.941C369.17 407.353 370.816 407.697 375.028 407.699C379.24 407.704 381.041 407.364 379.029 406.947ZM387.252 407.113C386.847 406.515 386.184 406.515 385.779 407.113C385.374 407.708 385.706 408.196 386.516 408.196C387.326 408.196 387.657 407.708 387.252 407.113ZM432.023 404.963C431.618 404.366 430.956 404.366 430.55 404.963C430.146 405.559 430.477 406.046 431.287 406.046C432.097 406.046 432.428 405.559 432.023 404.963ZM436.158 404.976C435.759 404.387 434.964 404.35 434.391 404.896C433.817 405.442 434.144 405.924 435.116 405.967C436.088 406.01 436.557 405.565 436.158 404.976ZM184.015 402.756C184.582 402.214 185.51 402.214 186.077 402.756C186.643 403.295 186.18 403.738 185.046 403.738C183.912 403.738 183.448 403.295 184.015 402.756ZM189.611 402.814C190.016 402.216 190.679 402.216 191.084 402.814C191.489 403.409 191.158 403.897 190.348 403.897C189.538 403.897 189.206 403.409 189.611 402.814ZM76.8328 399.263C76.6632 398.261 73.571 397.64 69.9611 397.883C63.4109 398.319 51.9383 395.155 50.0073 392.378C49.3611 391.449 49.0329 388.93 49.1107 385.497C49.2432 379.655 49.3345 379.446 52.647 377.439C55.358 375.794 55.5766 372.316 52.9416 372.753C51.1872 373.043 51.0411 372.574 51.1967 367.158C51.3451 361.981 51.1619 361.242 49.7239 361.214C47.6639 361.171 46.9381 359.26 46.7755 353.448C46.6701 349.667 47.0524 348.639 48.9846 347.513C52.1121 345.688 51.9431 342.715 48.6341 341.355C46.0203 340.28 42.7703 332.537 43.3924 328.866C43.5467 327.953 42.8775 326.566 41.9049 325.786C40.3762 324.561 40.2501 323.954 40.9741 321.313C41.4348 319.632 42.1623 318.241 42.5906 318.224C43.1773 318.198 43.1567 317.702 42.507 316.201C41.9031 314.808 42.5918 314.015 44.8097 313.549C47.936 312.891 47.9743 312.801 48.0274 305.896C48.0574 302.053 47.8824 298.911 47.6397 298.911C47.397 298.911 47.1979 296.976 47.1979 294.612C47.1979 291.426 46.7785 290.237 45.5779 290.02C44.1658 289.764 44.1299 289.607 45.2987 288.789C47.0065 287.593 50.1127 281.745 49.0494 281.727C48.6 281.721 48.3914 280.373 48.5728 278.647C49.0524 274.088 47.886 271.629 44.0091 269.024C40.5406 266.694 39.046 264.518 40.914 264.518C41.4542 264.518 41.8961 263.067 41.8961 261.294C41.8961 258.786 41.1108 258.07 38.3615 258.07C34.5501 258.07 33.3648 253.964 37.0361 253.479C38.4033 253.298 38.7403 252.831 37.9197 252.253C37.1904 251.742 36.5942 250.489 36.5942 249.468C36.5942 248.447 36.0599 246.993 35.4072 246.237C34.7545 245.482 34.3669 244.001 34.5448 242.95C34.7233 241.897 33.9981 240.119 32.9336 238.999C31.2612 237.239 31.5987 236.927 35.416 236.704C39.9527 236.437 40.1211 234.174 35.8149 231.349C33.9056 230.098 33.6729 229.385 34.2897 226.674C34.8753 224.099 35.1162 224.019 35.5227 226.264C35.915 228.432 36.2243 228.11 36.9123 224.817C37.7235 220.937 37.6852 220.406 36.4593 218.472C35.3141 216.666 35.5886 216.193 38.3615 215.183C41.2693 214.125 41.4731 213.736 40.3497 211.387C39.6616 209.947 37.9385 208.124 36.5206 207.337C32.1136 204.891 31.8597 202.329 36.0051 202.133L39.8342 201.955L34.827 195.083L29.8197 188.211L32.7651 187.136L35.7106 186.061L32.2397 183.153C29.8144 181.12 29.0161 179.673 29.5887 178.349C30.04 177.306 30.9389 176.371 31.5869 176.27C32.7569 176.088 32.7569 176.075 31.5975 174.422C30.7504 173.216 31.4785 172.249 34.2485 170.901C37.7082 169.22 37.8455 168.973 35.7106 168.274C34.4146 167.851 33.1027 166.6 32.7946 165.497C32.4476 164.254 34.91 163.427 39.2746 163.322C44.7113 163.19 45.9455 162.66 44.6943 160.994C43.7552 159.741 43.0743 157.226 43.0743 155.007C43.0743 151.903 42.0445 150.416 37.6328 147.149C34.6402 144.933 32.6909 142.768 33.3006 142.34C34.1878 141.717 34.2449 141.182 33.5869 139.662C32.9825 138.265 33.1545 137.747 34.2379 137.697C35.0479 137.661 36.1006 136.73 36.5777 135.629C37.5415 133.407 37.2911 132.863 34.1554 130.372C33.3 129.693 32.4564 127.767 32.2803 126.09C32.0117 123.541 33.0296 123.205 38.5483 124.035C43.4171 124.766 44.9057 124.409 44.2524 122.668C43.5072 120.68 43.5538 120.364 44.547 120.652C46.5157 121.228 46.947 120.54 46.0197 118.304C45.4188 116.856 46.2666 116.666 48.6706 117.711C53.0712 119.626 52.8461 119.648 62.8089 116.329C68.9142 114.296 77.8643 113.965 97.2708 115.05C113.38 115.953 128.482 115.643 136.446 114.25C162.693 109.653 165.303 109.33 164.928 110.745C164.718 111.538 161.802 112.711 158.448 113.352C155.095 113.99 152.099 115.379 151.791 116.432C151.024 119.061 201.75 118.857 219.64 116.159C229.902 114.612 307.414 111.583 334.381 111.675C340.397 111.697 366.637 114.414 367.841 115.14C368.835 115.742 369.348 115.297 369.132 114.02C368.935 112.855 369.038 111.903 369.362 111.903C369.686 111.903 370.115 112.87 370.315 114.053C370.793 116.871 372.966 116.838 372.966 114.014C372.966 111.583 386.883 111.439 397.045 113.763C401.698 114.827 403.225 114.515 403.441 112.458C403.597 110.97 404.11 109.754 404.581 109.754C405.051 109.754 405.272 110.721 405.072 111.903C404.872 113.085 405.187 114.218 405.774 114.42C406.36 114.622 407.237 115.003 407.723 115.267C408.209 115.529 410.065 115.863 411.847 116.007C413.821 116.166 414.785 116.967 414.314 118.055C413.55 119.824 417.728 121.471 429.519 124.041C435.447 125.333 438.13 128.863 433.614 129.426C432.172 129.607 430.727 129.978 430.403 130.254C430.079 130.529 427.296 130.997 424.218 131.294L418.621 131.838L422.45 133.51C424.556 134.43 428.885 135.485 432.071 135.853C435.256 136.223 437.989 137.272 438.144 138.185C438.299 139.099 438.955 139.847 439.603 139.847C440.251 139.847 440.639 140.687 440.465 141.717C440.289 142.755 439.03 142.796 437.632 141.809C434.812 139.819 432.124 139.318 432.547 140.861C433.114 142.933 445.319 150.607 446.164 149.425C446.657 148.735 447.194 149.661 447.392 151.547C447.642 153.922 448.647 154.994 450.856 155.244L453.967 155.594L450.727 156.862C448.178 157.862 447.825 158.406 449.073 159.414C449.945 160.121 451.933 159.979 453.491 159.102C455.048 158.225 456.383 157.703 456.457 157.941C456.53 158.182 456.168 160.577 455.652 163.266C455.031 166.503 454.516 167.431 454.129 166.017C453.741 164.601 452.919 164.637 451.693 166.129C448.402 170.129 448.921 171.03 454.07 170.245C457.661 169.699 459.005 170.166 458.719 171.857C458.47 173.323 458.839 174.314 459.676 174.432C460.887 174.604 455.098 178.897 450.432 181.287C449.46 181.786 450.653 182.353 453.083 182.547C455.513 182.742 457.899 183.841 458.385 184.987C459.118 186.715 459.068 187.082 458.09 187.136C457.442 187.173 456.515 188.224 456.029 189.473C455.382 191.132 455.897 191.377 457.941 190.382C461.597 188.606 462.37 190.483 460.683 197.035C459.937 199.936 459.675 202.183 460.084 202.183C460.484 202.183 460.647 203.15 460.447 204.332C460.246 205.514 458.972 206.497 457.614 206.514C456.256 206.533 454.747 207.556 454.261 208.79C453.626 210.402 454.245 210.639 456.47 209.629C459.617 208.203 460.808 211.067 458.238 213.88C456.945 215.295 456.941 215.381 458.09 217.395C459.024 219.028 458.837 219.271 457.191 218.558C454.82 217.528 452.329 222.162 453.997 224.499C454.52 225.23 455.423 225.827 456.004 225.827C456.586 225.827 457.392 227.278 457.796 229.051C458.372 231.584 458.374 232.276 457.805 232.276C457.403 232.276 457.231 233.712 457.42 235.5C457.637 237.572 457.397 238.778 456.747 238.875C455.907 239.002 455.935 239.326 456.912 240.788C458.007 242.426 457.973 242.718 456.432 244.936C455.52 246.248 454.393 247.322 453.928 247.322C453.464 247.322 453.083 248.29 453.083 249.472C453.083 250.654 454.607 251.716 456.47 251.83L459.858 252.038L457.649 255.346C455.253 258.932 454.819 263.156 456.507 266.451C457.094 267.596 460.54 269.219 464.165 270.058C467.79 270.894 470.756 272.328 470.756 273.243C470.756 274.159 470.027 275.879 469.136 277.067C467.78 278.873 468.212 279.253 471.787 279.395C474.21 279.492 476.058 280.496 476.058 281.714C476.058 282.897 475.512 283.864 474.845 283.864C474.178 283.864 473.789 284.788 473.98 285.919C474.171 287.05 474.718 287.43 475.193 286.764C475.668 286.099 476.058 286.463 476.058 287.572C476.058 288.683 474.798 290.669 473.26 291.987C470.884 294.02 471.796 294.278 479.298 293.698L488.134 293.012L480.476 296.942C467.075 303.818 467.315 303.639 468.989 305.469C470.351 306.958 470.365 307.096 469.171 307.294C467.374 307.592 466.919 311.3 468.538 312.435C469.28 312.958 468.784 313.501 467.417 313.665C466.068 313.826 464.875 314.912 464.767 316.077C464.659 317.242 461.522 318.987 457.796 319.952C451.16 321.672 451.072 321.762 453.507 324.348C455.094 326.031 459.226 326.813 464.92 326.51C473.161 326.07 473.912 326.356 474.682 330.205C475.416 333.874 476.403 334.463 482.856 335.091C488.708 335.659 490.196 336.422 490.196 338.853C490.196 340.529 489.966 341.901 489.684 341.901C488.856 341.901 478.803 348.377 477.678 349.635C475.549 352.016 476.765 354.806 480.034 355.045C483.385 355.29 483.396 355.312 481.065 357.07C479.769 358.048 476.588 358.976 473.996 359.131C469.38 359.411 463.119 362.332 464.865 363.396C466.527 364.408 460.452 367.377 456.391 367.536C452.851 367.676 452.161 368.378 450.969 373.069L449.604 378.442L452.08 378.636L454.556 378.829L452.542 380.942C451.434 382.103 450.042 382.589 449.449 382.024C448.856 381.458 448.37 381.8 448.37 382.784C448.37 383.769 447.906 385.018 447.339 385.559C446.773 386.099 447.501 386.776 448.959 387.06L451.61 387.578L448.959 389.207C440.295 394.529 378.678 397.468 358.828 393.504C353.158 392.371 345.824 391.421 342.53 391.393C338.302 391.355 336.453 390.548 336.242 388.653C336.017 386.63 335.822 386.585 335.452 388.476C335.036 390.596 322.803 393.035 321.715 391.217C320.652 389.439 165.471 389.674 155.002 391.468C148.036 392.664 140.083 394.018 137.329 394.478C134.575 394.938 126.378 395.819 119.114 396.432C111.849 397.046 103.234 398.156 99.9683 398.895C90.5263 401.036 77.1692 401.249 76.8328 399.263ZM375.802 400.619C376.226 399.998 376.735 400.075 376.93 400.789C377.126 401.502 376.778 402.01 376.158 401.917C375.471 401.814 375.332 401.305 375.802 400.619ZM359.896 398.469C360.321 397.848 360.829 397.926 361.025 398.639C361.22 399.353 360.873 399.86 360.252 399.768C359.566 399.665 359.426 399.155 359.896 398.469ZM364.609 398.469C365.034 397.848 365.542 397.926 365.738 398.639C365.933 399.353 365.586 399.86 364.965 399.768C364.278 399.665 364.139 399.155 364.609 398.469ZM175.473 394.121C176.202 393.609 177.395 393.609 178.124 394.121C178.853 394.635 178.256 395.054 176.798 395.054C175.34 395.054 174.744 394.635 175.473 394.121ZM294.775 385.63C294.377 385.041 293.581 385.005 293.008 385.551C292.435 386.097 292.761 386.578 293.733 386.621C294.705 386.664 295.174 386.219 294.775 385.63ZM445.854 385.742C445.659 385.029 445.15 384.951 444.726 385.572C444.256 386.258 444.395 386.767 445.081 386.871C445.702 386.963 446.05 386.456 445.854 385.742ZM358.07 381.925C358.271 381.192 356.337 380.482 353.772 380.347C351.206 380.214 342.348 379.612 334.086 379.012C325.824 378.41 296.579 377.174 269.098 376.261C241.616 375.347 217.686 373.944 215.919 373.137C212.674 371.659 208.789 373.365 209.501 375.96C209.911 377.454 215.487 377.853 246.753 378.621C258.686 378.915 266.341 379.904 266.341 381.153C266.341 382.279 266.713 382.679 267.169 382.041C268.429 380.278 288.047 380.577 302.275 382.576C316.186 384.532 357.488 384.048 358.07 381.925ZM373.457 383.814C373.034 382.269 362.936 382.082 362.517 383.612C362.324 384.315 364.773 384.891 367.959 384.891C371.145 384.891 373.619 384.407 373.457 383.814ZM375.752 383.593C375.557 382.879 375.048 382.802 374.624 383.423C374.153 384.109 374.293 384.618 374.979 384.721C375.6 384.814 375.948 384.306 375.752 383.593ZM331.001 381.222C331.733 380.708 332.794 380.727 333.357 381.265C333.92 381.802 333.32 382.223 332.024 382.2C330.728 382.176 330.268 381.735 331.001 381.222ZM411.46 381.129C411.61 380.244 408.069 379.517 403.592 379.517C399.114 379.517 395.252 380.244 395.009 381.129C394.766 382.015 398.306 382.741 402.877 382.741C407.448 382.741 411.31 382.015 411.46 381.129ZM414.497 380.592C412.889 378.068 412.436 378.068 412.436 380.592C412.436 381.774 413.164 382.673 414.056 382.591C415.491 382.456 415.541 382.23 414.497 380.592ZM306.878 379.124C307.303 378.503 307.811 378.58 308.007 379.294C308.202 380.007 307.855 380.515 307.234 380.422C306.547 380.319 306.408 379.81 306.878 379.124ZM310.386 379.034C311.444 378.556 313.035 378.565 313.92 379.055C314.806 379.547 313.939 379.938 311.995 379.926C310.051 379.915 309.327 379.513 310.386 379.034ZM191.47 374.017C191.046 373.06 190.458 372.819 190.166 373.479C189.873 374.139 189.98 375.463 190.404 376.42C190.828 377.376 191.415 377.617 191.708 376.957C192.001 376.297 191.893 374.973 191.47 374.017ZM202.129 375.826C202.129 374.9 200.208 374.257 197.858 374.397C194.689 374.586 194.043 375.066 195.355 376.256C197.616 378.311 202.129 378.023 202.129 375.826ZM208.02 377.314C208.02 375.018 204.84 371.869 203.943 373.277C203.209 374.429 203.322 375.081 204.486 376.375C206.285 378.378 208.02 378.838 208.02 377.314ZM188.854 374.021C188.665 372.907 186.472 372.009 183.98 372.026C181.488 372.045 179.759 372.77 180.138 373.638C181.187 376.044 189.257 376.398 188.854 374.021ZM377.249 374.883C376.85 374.294 376.054 374.257 375.481 374.803C374.908 375.349 375.234 375.831 376.206 375.874C377.178 375.917 377.647 375.472 377.249 374.883ZM418.474 372.626C417.745 372.114 416.552 372.114 415.823 372.626C415.094 373.14 415.69 373.559 417.148 373.559C418.606 373.559 419.203 373.14 418.474 372.626ZM53.0888 344.05C53.0888 342.868 52.9722 341.901 52.8291 341.901C52.6859 341.901 52.4055 342.868 52.2052 344.05C52.0049 345.233 52.1221 346.2 52.465 346.2C52.8078 346.2 53.0888 345.233 53.0888 344.05ZM37.0732 265.2C37.4979 264.579 38.0063 264.656 38.2019 265.37C38.3974 266.083 38.0499 266.591 37.429 266.498C36.7427 266.395 36.6031 265.885 37.0732 265.2ZM455.869 228.828C455.673 228.114 455.165 228.037 454.74 228.658C454.27 229.344 454.41 229.853 455.096 229.956C455.717 230.049 456.064 229.542 455.869 228.828ZM41.8961 223.678C41.8961 222.495 41.6151 221.528 41.2722 221.528C40.9294 221.528 40.8121 222.495 41.0124 223.678C41.2127 224.86 41.4931 225.827 41.6363 225.827C41.7794 225.827 41.8961 224.86 41.8961 223.678ZM217.175 191.291C217.809 187.549 217.088 186.756 216.279 190.309C215.815 192.351 215.77 193.585 216.161 193.585C216.505 193.585 216.962 192.553 217.175 191.291ZM254.531 185.999C254.881 186.788 255.015 188.333 254.828 189.434C254.633 190.584 255.987 191.435 258.01 191.435C260.043 191.435 261.621 190.438 261.745 189.075C261.864 187.777 263.206 186.201 264.728 185.575C268.52 184.015 267.655 180.705 263.67 181.524C261.272 182.016 260.45 181.444 260.45 179.286C260.45 175.636 258.294 175.458 257.894 179.075C257.722 180.634 257.578 180.129 257.551 177.874C257.525 175.735 257.286 174.475 257.02 175.077C256.754 175.677 256.094 174.284 255.553 171.98C254.4 167.062 251.613 166.286 251.613 170.879C251.613 173.231 251.102 173.665 249.472 172.702C247.792 171.707 247.394 172.083 247.621 174.447C247.781 176.107 248.287 177.364 248.747 177.244C249.207 177.124 249.945 178.441 250.388 180.169C251.087 182.901 250.931 183.121 249.194 181.84C248.095 181.029 246.753 179.916 246.214 179.366C245.674 178.813 245.077 179.28 244.888 180.397C244.698 181.517 245.883 183.106 247.521 183.927C249.16 184.75 250.817 186.685 251.204 188.228C251.781 190.528 252.087 190.451 252.902 187.8C253.448 186.02 254.182 185.21 254.531 185.999ZM337.621 188.454C337.621 186.689 334.018 185.801 333.731 187.495C333.564 188.479 334.371 189.286 335.524 189.286C336.677 189.286 337.621 188.912 337.621 188.454ZM230.051 175.511C229.545 170.699 228.803 173.104 228.981 178.985C229.202 186.298 229.216 186.358 229.836 182.484C230.15 180.518 230.247 177.379 230.051 175.511ZM271.801 183.576C271.402 182.987 270.607 182.951 270.034 183.497C269.46 184.043 269.787 184.524 270.759 184.567C271.731 184.61 272.2 184.165 271.801 183.576ZM291.672 182.727C287.894 180.275 274.462 180.354 273.41 182.837C272.824 184.219 276.196 184.84 283.424 184.686C290.878 184.522 293.485 183.905 291.672 182.727ZM303.895 183.447C303.004 182.955 301.547 182.955 300.655 183.447C299.764 183.94 300.493 184.342 302.275 184.342C304.057 184.342 304.787 183.94 303.895 183.447ZM309.492 183.564C309.087 182.966 308.424 182.966 308.019 183.564C307.614 184.159 307.945 184.647 308.755 184.647C309.565 184.647 309.897 184.159 309.492 183.564ZM315.383 183.564C314.978 182.966 314.315 182.966 313.91 183.564C313.505 184.159 313.836 184.647 314.646 184.647C315.456 184.647 315.788 184.159 315.383 183.564ZM215.089 181.786C215.089 178.656 212.893 172.1 211.866 172.16C210.717 172.229 210.723 172.39 212.019 176.333L213.366 180.432L210.841 181.259C208.623 181.986 208.728 182.132 211.702 182.461C213.565 182.667 215.089 182.364 215.089 181.786ZM217.875 181.539C217.68 180.825 217.171 180.748 216.747 181.369C216.276 182.055 216.416 182.564 217.102 182.667C217.723 182.76 218.071 182.252 217.875 181.539ZM253.97 180.687C253.97 179.505 254.251 178.538 254.593 178.538C254.936 178.538 255.054 179.505 254.853 180.687C254.653 181.87 254.373 182.837 254.229 182.837C254.086 182.837 253.97 181.87 253.97 180.687ZM438.196 181.539C438.001 180.825 437.492 180.748 437.067 181.369C436.597 182.055 436.737 182.564 437.423 182.667C438.044 182.76 438.392 182.252 438.196 181.539ZM442.627 181.414C442.222 180.816 441.559 180.816 441.154 181.414C440.749 182.009 441.08 182.497 441.89 182.497C442.7 182.497 443.032 182.009 442.627 181.414ZM189.599 179.389C189.403 178.676 188.895 178.598 188.47 179.219C188 179.905 188.14 180.415 188.826 180.518C189.447 180.61 189.794 180.103 189.599 179.389ZM206.118 178.134C205.99 176.73 205.533 175.155 205.103 174.632C204.664 174.097 204.49 174.675 204.707 175.956C204.923 177.233 204.508 178.641 203.758 179.166C202.808 179.832 202.989 180.187 204.387 180.395C205.669 180.586 206.27 179.8 206.118 178.134ZM224.809 176.388C224.595 173.923 224.703 172.089 225.065 172.089C225.41 172.089 225.693 171.283 225.693 170.299C225.693 167.507 223.298 168.842 222.775 171.926C222.414 174.061 222.023 174.125 221.043 172.212C220.347 170.853 219.491 170.387 219.141 171.178C218.434 172.773 222.41 180.236 224.113 180.513C224.923 180.645 225.092 179.641 224.809 176.388ZM336.148 178.538C336.348 177.356 336.231 176.388 335.888 176.388C335.545 176.388 335.264 177.356 335.264 178.538C335.264 179.72 335.381 180.687 335.524 180.687C335.667 180.687 335.948 179.72 336.148 178.538ZM341.744 179.74C341.744 179.217 341.479 178.194 341.155 177.463C340.831 176.732 340.566 177.16 340.566 178.411C340.566 179.662 340.831 180.687 341.155 180.687C341.479 180.687 341.744 180.262 341.744 179.74ZM427.911 179.277C427.512 178.688 426.716 178.652 426.143 179.198C425.57 179.744 425.896 180.225 426.868 180.268C427.84 180.311 428.309 179.866 427.911 179.277ZM431.127 179.389C430.931 178.676 430.423 178.598 429.998 179.219C429.528 179.905 429.668 180.415 430.354 180.518C430.975 180.61 431.323 180.103 431.127 179.389ZM198.3 176.388C198.501 175.206 198.383 174.239 198.041 174.239C197.698 174.239 197.417 175.206 197.417 176.388C197.417 177.571 197.533 178.538 197.676 178.538C197.82 178.538 198.1 177.571 198.3 176.388ZM267.948 177.24C267.753 176.526 267.244 176.449 266.819 177.07C266.349 177.756 266.489 178.265 267.175 178.368C267.796 178.461 268.144 177.953 267.948 177.24ZM270.894 177.24C270.698 176.526 270.19 176.449 269.765 177.07C269.295 177.756 269.434 178.265 270.121 178.368C270.742 178.461 271.089 177.953 270.894 177.24ZM276.355 175.314C276.355 173.54 276.62 172.089 276.944 172.089C277.268 172.089 277.533 173.297 277.532 174.776C277.531 176.771 278.825 177.283 282.547 176.767C285.581 176.345 287.425 175.249 287.212 173.992C287.018 172.85 286.392 172.457 285.82 173.119C285.249 173.781 284.012 172.857 283.072 171.068C281.559 168.188 281.341 168.184 281.172 171.028C280.959 174.617 278.394 175.432 277.828 172.089C277.433 169.757 275.004 169.138 274.432 171.225C273.859 173.317 274.646 178.538 275.535 178.538C275.986 178.538 276.355 177.087 276.355 175.314ZM330.552 175.314C329.931 172.584 330.06 172.089 331.398 172.089C332.301 172.089 332.821 171.169 332.614 169.94C332.413 168.758 331.691 167.79 331.008 167.79C330.325 167.79 329.956 167.098 330.187 166.254C330.419 165.409 332.754 165.015 335.376 165.377C339.636 165.965 340.104 165.652 339.766 162.434C339.517 160.065 339.64 159.171 340.124 159.818C340.529 160.362 340.795 161.892 340.714 163.223C340.632 164.553 341.245 165.641 342.074 165.641C342.929 165.641 343.424 164.71 343.217 163.491C343.017 162.309 343.134 161.342 343.477 161.342C343.82 161.342 344.101 162.309 344.101 163.491C344.101 167.068 346.304 165.899 346.703 162.109C346.907 160.166 346.986 158.253 346.877 157.858C346.769 157.464 344.068 156.877 340.875 156.555C336.636 156.127 335.003 156.693 334.823 158.655C334.688 160.132 334.053 161.342 333.413 161.342C332.773 161.342 332.413 160.375 332.614 159.192C332.826 157.939 332.227 157.043 331.176 157.043C330.185 157.043 329.374 158.01 329.374 159.192C329.374 160.375 328.393 161.342 327.194 161.342C324.811 161.342 325.116 164.779 327.606 165.996C328.714 166.537 329.125 168.182 329.265 172.627C329.379 176.251 329.807 178.538 330.369 178.538C331.117 178.538 331.15 177.945 330.552 175.314ZM389.166 173.581C389.814 172.964 389.085 172.558 387.546 172.676C386.008 172.794 384.748 173.745 384.748 174.785C384.748 175.827 385.311 176.025 386 175.228C386.957 174.121 387.139 174.465 386.771 176.696C386.392 178.989 386.471 179.088 387.139 177.158C387.606 175.806 388.518 174.198 389.166 173.581ZM315.53 174.239C315.33 173.057 314.917 172.089 314.611 172.089C314.306 172.089 314.057 173.057 314.057 174.239C314.057 175.421 314.471 176.388 314.976 176.388C315.48 176.388 315.73 175.421 315.53 174.239ZM252.791 172.089C253.934 169.396 254.559 169.396 254.559 172.089C254.559 173.272 253.962 174.224 253.233 174.207C252.162 174.179 252.077 173.775 252.791 172.089ZM308.166 171.157C308.166 169.411 308.868 167.747 309.786 167.32C311.086 166.714 310.925 166.361 308.976 165.533C306.761 164.594 306.546 164.934 306.546 169.37C306.546 172.068 306.907 174.239 307.356 174.239C307.802 174.239 308.166 172.853 308.166 171.157ZM326.428 172.41C326.428 171.331 325.362 170.393 324.06 170.327C322.757 170.262 321.811 170.914 321.956 171.773C322.352 174.108 326.428 174.688 326.428 172.41ZM142.926 169.94C143.126 168.758 142.876 167.79 142.371 167.79C141.866 167.79 141.453 168.758 141.453 169.94C141.453 171.122 141.702 172.089 142.007 172.089C142.312 172.089 142.725 171.122 142.926 169.94ZM259.861 169.813C259.861 168.562 259.566 168.201 259.205 169.014C258.846 169.826 258.319 169.158 258.037 167.528C257.63 165.185 257.52 165.353 257.513 168.328C257.508 170.666 257.95 172.089 258.682 172.089C259.33 172.089 259.861 171.064 259.861 169.813ZM268.108 170.477C268.108 169.592 267.47 168.865 266.691 168.865C265.912 168.865 265.398 169.592 265.548 170.477C265.698 171.363 266.335 172.089 266.964 172.089C267.594 172.089 268.108 171.363 268.108 170.477ZM380.33 169.94C380.13 168.758 379.385 167.859 378.675 167.941C377.431 168.087 377.427 168.158 378.563 169.94C380.184 172.483 380.761 172.483 380.33 169.94ZM423.628 169.94C423.628 168.758 424.225 167.775 424.954 167.758C425.683 167.739 426.677 166.787 427.163 165.641C427.815 164.104 427.351 163.438 425.396 163.105C423.938 162.855 421.817 162.268 420.683 161.802C419.549 161.333 409.475 160.667 398.297 160.321C387.119 159.975 379.564 160.413 381.508 161.297C383.452 162.178 386.368 163.502 387.988 164.237C394.213 167.06 401.762 167.795 402.131 165.617C402.335 164.409 402.775 164.035 403.107 164.785C403.44 165.533 404.331 164.938 405.088 163.459C405.845 161.98 406.947 161.473 407.536 162.333C408.125 163.193 410.512 164.065 412.84 164.272C415.168 164.478 417.246 165.28 417.458 166.054C417.669 166.825 418.747 166.922 419.852 166.269C421.45 165.323 421.861 165.796 421.861 168.584C421.861 170.512 422.259 172.089 422.745 172.089C423.231 172.089 423.628 171.122 423.628 169.94ZM440.958 169.403C441.232 167.253 441.37 167.253 441.645 169.403C442.015 172.292 446.932 173.211 447.396 170.477C447.546 169.592 446.501 169.205 445.074 169.62C443.454 170.09 442.479 169.484 442.479 168.008C442.479 164.422 439.709 165.174 439.321 168.865C438.908 172.786 440.46 173.295 440.958 169.403ZM304.337 167.79C304.137 166.608 303.26 165.71 302.388 165.791C300.972 165.927 300.929 166.142 301.981 167.79C303.617 170.357 304.772 170.357 304.337 167.79ZM359.712 167.79C359.512 166.608 359.894 165.641 360.561 165.641C361.228 165.641 361.774 166.608 361.774 167.79C361.774 170.329 362.915 169.755 363.885 166.729C364.775 163.954 361.75 159.055 360.112 160.618C359.479 161.222 358.783 160.665 358.565 159.379C358.347 158.094 357.772 157.043 357.286 157.043C356.8 157.043 356.579 158.085 356.795 159.358C357.066 160.961 356.353 161.217 354.473 160.19C352.826 159.289 351.759 159.528 351.759 160.798C351.759 161.948 353.279 163.463 355.137 164.162C356.995 164.861 358.607 166.447 358.72 167.687C358.833 168.925 359.185 169.94 359.501 169.94C359.817 169.94 359.912 168.973 359.712 167.79ZM376.555 167.958C376.099 166.903 374.945 166.4 373.991 166.84C372.655 167.457 372.187 166.671 371.954 163.416C371.787 161.093 371.425 159.192 371.149 159.192C370.513 159.192 371.198 166.191 372.04 168.296C372.387 169.164 373.732 169.873 375.028 169.873C376.636 169.873 377.121 169.265 376.555 167.958ZM169.14 165.892C169.14 163.332 166.863 161.288 166.486 163.509C166.322 164.48 166.52 165.763 166.928 166.363C168.134 168.139 169.14 167.924 169.14 165.892ZM176.798 165.641C176.798 164.459 176.549 163.491 176.244 163.491C175.939 163.491 175.526 164.459 175.326 165.641C175.125 166.823 175.375 167.79 175.88 167.79C176.385 167.79 176.798 166.823 176.798 165.641ZM187.402 165.875C187.402 162.625 183.101 161.933 181.527 164.929C180.149 167.554 180.311 167.765 183.72 167.778C185.746 167.784 187.402 166.928 187.402 165.875ZM189.214 165.05C189.14 162.479 188.333 162.978 188.08 165.748C187.95 167.167 188.162 167.941 188.551 167.468C188.94 166.995 189.238 165.907 189.214 165.05ZM194.43 158.279C194.452 157.185 193.98 158.152 193.379 160.428C192.639 163.233 192.496 165.061 192.937 166.099C193.527 167.492 194.325 163.311 194.43 158.279ZM199.43 166.486C200.629 164.807 200.638 161.342 199.444 161.342C198.939 161.342 198.679 160.433 198.868 159.324C199.056 158.212 198.675 157.449 198.022 157.63C196.8 157.965 196.61 163.193 197.711 166.146C198.433 168.081 198.309 168.057 199.43 166.486ZM430.698 165.641C430.698 164.459 430.233 163.506 429.667 163.524C428.785 163.552 428.764 163.861 429.519 165.641C430.631 168.263 430.698 168.263 430.698 165.641ZM205.392 162.294C203.885 160.037 203.805 159.536 204.803 158.612C205.737 157.746 205.675 157.494 204.48 157.292C203.627 157.148 202.717 158.711 202.327 160.983C201.709 164.594 201.883 164.923 204.395 164.914C207.111 164.906 207.12 164.882 205.392 162.294ZM213.49 159.816C213.727 155.285 213.588 154.704 212.513 155.757C211.824 156.432 210.2 157.028 208.904 157.079C206.997 157.155 206.747 157.597 207.591 159.39C208.165 160.609 208.486 162.479 208.305 163.547C208.125 164.613 209.155 165.4 210.595 165.295C212.889 165.127 213.247 164.45 213.49 159.816ZM230.8 160.132C231.412 157.079 231.746 156.774 232.293 158.771C233.274 162.35 234.53 161.985 234.53 158.118C234.53 155.605 233.781 154.93 231.142 155.063C229.279 155.156 228.087 155.721 228.491 156.316C230.223 158.868 228.99 161.342 225.988 161.342C222.483 161.342 221.541 157.862 224.662 156.447C225.853 155.91 225.309 155.452 223.224 155.237C221.343 155.044 219.698 155.919 219.476 157.23C219.191 158.913 218.901 158.913 218.44 157.23C218.087 155.944 217.402 154.893 216.916 154.893C216.262 154.893 216.205 155.523 216.693 157.305C217.056 158.631 217.207 161.112 217.028 162.819C216.752 165.441 217.73 165.776 223.357 164.992C228.941 164.214 230.139 163.433 230.8 160.132ZM243.952 160.805C243.957 158.404 239.959 158.853 239.544 161.301C239.328 162.571 240.131 163.212 241.568 162.913C242.878 162.64 243.95 161.69 243.952 160.805ZM265.162 161.469C265.162 160.355 264.898 158.851 264.575 158.122C263.547 155.805 247.634 156.869 246.311 159.343C245.639 160.6 252.936 162.814 258.83 163.141C262.462 163.341 265.162 162.629 265.162 161.469ZM290.996 160.222C291.617 157.956 290.503 157.189 285.008 156.099C279.374 154.979 273.41 157.718 273.41 161.424C273.41 163.313 290.469 162.146 290.996 160.222ZM311.995 159.27C308.195 158.032 305.338 158.943 306.284 161.093C306.604 161.821 308.816 161.967 311.198 161.419L315.53 160.422L311.995 159.27ZM322.304 161.342C322.304 160.16 322.188 159.192 322.045 159.192C321.901 159.192 321.621 160.16 321.421 161.342C321.22 162.524 321.338 163.491 321.681 163.491C322.023 163.491 322.304 162.524 322.304 161.342ZM335.559 161.342C335.359 160.16 335.608 159.192 336.113 159.192C336.618 159.192 337.032 160.16 337.032 161.342C337.032 162.524 336.783 163.491 336.477 163.491C336.172 163.491 335.759 162.524 335.559 161.342ZM457.686 162.023C458.11 161.402 458.619 161.479 458.814 162.193C459.01 162.907 458.662 163.414 458.041 163.322C457.355 163.218 457.216 162.709 457.686 162.023ZM319.688 159.394C319.506 158.324 318.828 157.952 318.18 158.571C316.559 160.117 316.705 161.342 318.51 161.342C319.339 161.342 319.869 160.465 319.688 159.394ZM350.139 159.919C349.734 159.321 349.072 159.321 348.666 159.919C348.262 160.514 348.593 161.002 349.403 161.002C350.213 161.002 350.544 160.514 350.139 159.919ZM377.237 159.919C376.833 159.321 376.17 159.321 375.765 159.919C375.36 160.514 375.691 161.002 376.501 161.002C377.311 161.002 377.643 160.514 377.237 159.919ZM453.378 150.594C453.578 149.412 453.858 148.445 454.001 148.445C454.145 148.445 454.261 149.412 454.261 150.594C454.261 151.777 453.98 152.744 453.637 152.744C453.295 152.744 453.177 151.777 453.378 150.594ZM468.878 151.276C469.303 150.655 469.812 150.732 470.007 151.446C470.203 152.159 469.855 152.666 469.234 152.574C468.548 152.471 468.408 151.961 468.878 151.276ZM228.048 124.263C228.049 123.377 222.681 122.831 216.12 123.051C207.862 123.328 205.732 123.824 209.199 124.663C216.391 126.404 228.047 126.157 228.048 124.263ZM233.94 123.474C233.94 123.023 232.682 122.765 231.142 122.904C228.736 123.124 228.591 123.364 230.111 124.624C231.763 125.993 233.94 125.338 233.94 123.474ZM203.455 123.377C203.05 122.78 202.387 122.78 201.982 123.377C201.577 123.973 201.908 124.461 202.719 124.461C203.529 124.461 203.86 123.973 203.455 123.377ZM150.14 118.795C150.548 117.814 148.131 116.957 144.698 116.864C141.301 116.772 138.628 117.326 138.759 118.098C139.116 120.205 149.293 120.826 150.14 118.795ZM419.395 116.884C419.819 116.262 420.328 116.34 420.523 117.053C420.719 117.767 420.371 118.274 419.75 118.182C419.064 118.079 418.924 117.569 419.395 116.884ZM376.341 114.904C376.146 114.19 375.637 114.113 375.213 114.734C374.743 115.42 374.882 115.929 375.568 116.032C376.189 116.125 376.537 115.618 376.341 114.904ZM171.611 110.3C175.076 109.921 180.909 109.919 184.571 110.298C188.234 110.676 185.399 110.985 178.271 110.988C171.143 110.99 168.146 110.68 171.611 110.3ZM224.408 109.285C224.722 108.139 225.471 107.581 226.073 108.047C226.883 108.672 226.734 109.214 225.501 110.13C224.426 110.932 224.039 110.631 224.408 109.285ZM407.024 110.435C407.448 109.814 407.957 109.891 408.152 110.605C408.348 111.319 408 111.826 407.379 111.733C406.693 111.63 406.554 111.121 407.024 110.435ZM229.087 108.234C229.82 107.72 230.881 107.74 231.444 108.277C232.007 108.814 231.407 109.236 230.111 109.212C228.815 109.188 228.355 108.748 229.087 108.234ZM237.335 108.234C238.068 107.72 239.128 107.74 239.691 108.277C240.254 108.814 239.655 109.236 238.359 109.212C237.063 109.188 236.602 108.748 237.335 108.234ZM255.6 108.195C256.659 107.718 258.249 107.727 259.135 108.217C260.02 108.709 259.154 109.1 257.21 109.087C255.266 109.077 254.542 108.675 255.6 108.195ZM264.14 108.21C265.035 107.718 266.361 107.731 267.085 108.24C267.81 108.75 267.077 109.154 265.457 109.139C263.837 109.122 263.244 108.705 264.14 108.21ZM341.303 108.273C341.869 107.731 342.798 107.731 343.364 108.273C343.931 108.812 343.468 109.255 342.334 109.255C341.2 109.255 340.736 108.812 341.303 108.273ZM351.023 108.331C351.428 107.733 352.091 107.733 352.495 108.331C352.901 108.926 352.569 109.414 351.759 109.414C350.949 109.414 350.618 108.926 351.023 108.331Z" fill="#FCDA00"></path>
<path d="M188.292 94.1474C185.655 93.5022 183.017 92.6957 180.38 91.7279C178.072 90.4376 175.599 89.4698 172.962 88.8246C170.983 88.1794 169.5 88.3407 168.511 89.3085C167.851 89.9537 166.697 90.9215 165.049 92.2118C163.401 94.1474 161.917 95.9216 160.598 97.5346C159.279 98.825 157.631 100.599 155.653 102.857C148.729 111.567 142.96 120.277 138.344 128.987C133.728 137.375 129.113 145.762 124.497 154.15C125.816 155.763 127.629 157.053 129.937 158.021C132.245 158.666 134.223 159.634 135.871 160.924C141.146 158.343 145.267 154.634 148.235 149.795C151.532 144.956 154.993 140.278 158.62 135.762C159.279 132.859 160.598 130.278 162.576 128.02C164.554 125.761 165.873 123.181 166.533 120.277C166.862 118.987 166.862 117.697 166.533 116.406C166.533 115.116 167.192 113.987 168.511 113.019C169.17 115.6 169.83 117.535 170.489 118.826C171.148 120.116 171.808 122.052 172.467 124.632C173.126 130.762 172.962 136.73 171.973 142.536C171.643 143.504 171.148 144.472 170.489 145.44C170.159 146.407 169.83 147.536 169.5 148.827C168.181 152.375 167.192 154.472 166.533 155.117C166.203 155.763 165.708 156.569 165.049 157.537C164.06 158.505 162.906 159.634 161.587 160.924C160.598 161.892 159.774 163.021 159.115 164.311C156.477 166.892 154.664 169.634 153.675 172.537C152.026 173.183 150.872 174.15 150.213 175.441C149.553 176.409 148.4 177.699 146.751 179.312C145.103 180.602 143.784 182.054 142.795 183.667C141.806 184.957 140.157 184.957 137.849 183.667C133.234 184.635 128.453 184.635 123.508 183.667C118.892 182.699 114.276 181.893 109.661 181.247C107.683 180.602 106.364 179.473 105.704 177.86C105.045 176.247 103.891 175.279 102.243 174.957C101.583 173.989 101.089 172.86 100.759 171.57C100.759 169.957 100.1 168.828 98.7809 168.182C98.7809 166.247 98.616 164.634 98.2863 163.344C97.9566 161.731 97.9566 160.118 98.2863 158.505C98.616 157.214 98.9457 156.085 99.2754 155.117C99.9348 154.15 100.594 153.021 101.254 151.73C101.913 150.117 102.243 148.504 102.243 146.891C102.243 145.278 102.737 143.827 103.726 142.536C106.364 138.988 109.001 135.601 111.639 132.375C114.276 129.149 116.749 125.278 119.057 120.761C121.694 118.181 124.002 115.438 125.98 112.535C127.959 109.309 130.266 106.083 132.904 102.857C135.212 101.567 136.86 99.954 137.849 98.0185C143.124 92.5344 147.74 87.8568 151.696 83.9857C155.982 80.1146 160.104 76.0822 164.06 71.8885C166.038 69.6303 168.346 67.6948 170.983 66.0818C173.951 64.1463 177.248 62.8559 180.874 62.2107C186.479 60.2752 190.435 59.4687 192.743 59.7913C195.381 59.7913 198.183 59.4687 201.15 58.8235C205.436 60.4364 208.568 62.8559 210.547 66.0818C212.854 69.3077 215.162 72.695 217.47 76.2435C218.459 77.8565 219.119 79.3081 219.448 80.5985C220.108 81.5663 220.932 82.8566 221.921 84.4696C223.24 87.6955 224.558 91.5666 225.877 96.0829C227.196 100.599 227.031 105.438 225.383 110.6C225.053 114.793 224.229 119.31 222.91 124.148C221.591 128.665 220.437 133.342 219.448 138.181C219.119 140.117 218.954 142.052 218.954 143.988C218.954 145.601 218.789 147.698 218.459 150.279C218.129 153.182 217.305 156.246 215.986 159.472C214.997 162.376 214.008 165.279 213.019 168.182C211.7 171.731 210.876 175.441 210.547 179.312C210.217 182.86 209.722 186.409 209.063 189.957C207.414 199.635 205.271 209.313 202.634 218.991C200.326 228.346 198.183 237.862 196.205 247.54C195.216 253.024 193.732 258.347 191.754 263.509C189.776 268.67 187.963 273.831 186.314 278.993C184.995 280.283 184.006 282.219 183.347 284.8C183.017 287.058 182.523 289.316 181.863 291.574C179.226 298.671 177.083 305.768 175.434 312.865C173.786 319.64 173.126 326.575 173.456 333.672C173.456 338.834 173.126 343.995 172.467 349.157C171.808 353.996 171.148 359.157 170.489 364.641C172.467 364.319 173.786 362.706 174.445 359.802C177.083 357.222 179.226 354.641 180.874 352.06C182.523 349.157 184.171 346.415 185.82 343.834C186.479 342.866 187.138 342.06 187.798 341.415C188.457 340.769 189.117 339.963 189.776 338.995C190.435 338.027 190.93 337.06 191.26 336.092C191.919 334.802 192.578 333.511 193.238 332.221C195.216 329.64 197.524 327.059 200.161 324.479C202.799 321.898 205.271 319.156 207.579 316.252C209.228 313.672 210.711 311.091 212.03 308.51C213.349 305.929 214.997 303.671 216.976 301.736C221.921 293.994 227.031 286.574 232.306 279.477C237.581 272.057 243.021 264.96 248.626 258.186C257.198 246.895 265.44 236.249 273.353 226.249C281.265 215.926 289.508 205.764 298.08 195.764C300.058 191.57 302.695 187.861 305.992 184.635C309.289 181.086 312.421 177.699 315.389 174.473C316.707 173.183 317.861 171.892 318.85 170.602C319.839 168.989 320.993 167.699 322.312 166.731C326.928 161.247 331.379 155.924 335.665 150.762C340.28 145.278 344.731 139.794 349.017 134.31C350.666 131.729 352.314 128.987 353.963 126.084C355.611 123.181 357.754 120.6 360.392 118.342C363.029 115.761 365.007 113.18 366.326 110.6C367.645 108.019 369.293 105.599 371.271 103.341C373.25 101.406 374.568 99.954 375.228 98.9863C375.887 98.3411 376.547 97.6959 377.206 97.0507C377.865 96.4055 378.525 95.7603 379.184 95.1152C381.162 92.2118 382.811 90.4376 384.129 89.7924C385.448 89.1472 386.437 88.3407 387.097 87.3729C389.405 86.4052 391.383 85.4374 393.031 84.4696C395.009 83.5018 396.823 82.534 398.471 81.5663C400.779 80.9211 402.592 80.1146 403.911 79.1468C405.559 77.8565 407.538 76.8887 409.845 76.2435C411.164 74.9531 412.648 73.9853 414.296 73.3402C415.945 72.3724 417.593 71.4046 419.242 70.4368C420.56 69.7916 421.714 69.1465 422.703 68.5013C423.692 67.8561 424.682 67.2109 425.671 66.5657C430.286 70.7594 432.1 74.9531 431.111 79.1468C430.121 83.0179 428.803 86.4052 427.154 89.3085C426.165 90.9215 424.846 92.3731 423.198 93.6635C421.549 94.9539 420.066 96.2442 418.747 97.5346C416.11 100.115 413.637 102.696 411.329 105.277C409.351 107.858 407.208 110.761 404.9 113.987C402.262 118.181 398.966 122.374 395.009 126.568C391.383 130.762 387.921 134.633 384.624 138.181C383.965 139.472 383.14 140.601 382.151 141.569C381.492 142.536 380.833 143.504 380.173 144.472C378.854 146.085 377.865 147.698 377.206 149.311C376.547 150.601 375.393 151.569 373.744 152.214C373.085 153.827 372.096 155.117 370.777 156.085C369.458 157.053 368.469 158.343 367.81 159.956C364.842 162.537 362.04 165.763 359.403 169.634C357.424 172.215 356.27 173.666 355.941 173.989C355.611 173.989 355.281 174.15 354.952 174.473C352.314 178.667 349.677 182.054 347.039 184.635C345.72 186.248 344.566 188.344 343.577 190.925C341.929 192.538 340.61 194.474 339.621 196.732C338.632 198.667 337.313 200.764 335.665 203.022C335.005 203.99 334.346 204.958 333.687 205.926C333.027 206.894 332.368 208.023 331.708 209.313C330.39 211.894 329.071 214.313 327.752 216.571C326.763 218.829 325.444 221.249 323.796 223.83C322.477 226.41 321.323 228.669 320.334 230.604C319.345 232.54 318.026 234.475 316.378 236.411C313.081 239.959 309.784 243.992 306.487 248.508C303.19 253.024 299.728 256.895 296.102 260.121C295.442 261.734 294.453 263.025 293.134 263.992C292.145 264.96 291.156 266.089 290.167 267.38C287.53 270.606 285.057 273.831 282.749 277.057C280.771 280.283 278.463 283.509 275.826 286.735C274.177 288.993 272.529 291.09 270.88 293.026C269.561 294.961 268.078 297.058 266.429 299.316C264.781 300.929 263.132 302.704 261.484 304.639C260.165 306.575 258.682 308.671 257.033 310.93C255.714 312.543 254.396 314.156 253.077 315.769C252.088 317.059 251.099 318.672 250.11 320.607C247.472 322.543 245.329 325.124 243.681 328.35C242.362 331.253 240.219 333.834 237.252 336.092C235.273 339.318 233.295 342.544 231.317 345.77C229.339 348.673 227.031 351.899 224.394 355.447C223.734 356.738 223.075 357.867 222.415 358.835C222.086 359.802 221.756 361.254 221.426 363.19C220.767 364.803 219.943 366.093 218.954 367.061C217.965 368.029 217.305 369.319 216.976 370.932C210.382 378.674 204.942 385.771 200.656 392.223C196.37 398.352 191.589 403.998 186.314 409.159C184.336 412.062 182.358 414.482 180.38 416.417C178.731 418.353 177.412 420.611 176.423 423.192C174.445 426.095 171.973 428.837 169.005 431.418C166.038 434.321 162.906 436.902 159.609 439.16C157.631 440.773 155.323 441.418 152.686 441.096C150.048 440.773 147.905 439.322 146.257 436.741C141.971 434.483 139.333 432.386 138.344 430.45C137.685 428.837 136.366 426.74 134.388 424.16C130.431 423.514 128.948 420.934 129.937 416.417C130.926 411.901 131.75 407.546 132.409 403.352C133.069 398.514 133.563 393.352 133.893 387.868C134.552 382.384 135.047 376.9 135.377 371.416C135.706 364.319 136.036 357.222 136.366 350.125C136.695 343.028 137.19 335.769 137.849 328.35C138.179 327.382 138.179 326.575 137.849 325.93C137.849 324.962 137.849 323.995 137.849 323.027C137.849 321.414 138.014 319.801 138.344 318.188C138.674 316.575 138.838 314.801 138.838 312.865C138.838 311.252 138.838 309.801 138.838 308.51C138.838 307.22 139.003 305.768 139.333 304.155C139.663 298.026 140.487 292.381 141.806 287.219C143.454 282.058 144.938 276.574 146.257 270.767C148.564 264.96 150.378 258.992 151.696 252.863C153.345 246.411 154.993 240.121 156.642 233.991C159.279 226.572 161.422 218.346 163.071 209.313C163.401 208.345 163.401 207.377 163.071 206.41C163.071 205.119 163.236 203.99 163.565 203.022C163.895 201.409 164.225 199.958 164.554 198.667C165.214 197.377 165.379 195.925 165.049 194.312C166.368 188.183 167.522 183.183 168.511 179.312C169.83 175.441 171.313 171.247 172.962 166.731C173.621 165.118 173.951 163.827 173.951 162.86C174.28 161.569 174.61 160.279 174.94 158.989C176.259 156.085 177.577 152.859 178.896 149.311C180.545 145.44 182.028 141.73 183.347 138.181C184.336 135.601 185.325 132.859 186.314 129.955C187.633 127.052 188.622 124.31 189.281 121.729C190.27 114.955 190.765 109.471 190.765 105.277C190.765 101.083 189.941 97.3733 188.292 94.1474Z" fill="black"></path>
</svg><style>@media (prefers-color-scheme: light) { :root { filter: none; } }
@media (prefers-color-scheme: dark) { :root { filter: none; } }
</style></svg>